<svg xmlns="http://www.w3.org/2000/svg" width="32" height="32" viewBox="0 0 32 32">
  <defs>
    <filter id="glow" x="-80%" y="-80%" width="260%" height="260%">
      <feGaussianBlur stdDeviation="1.8" result="blur"/>
      <feFlood flood-color="#46d8ff" flood-opacity="0.9"/>
      <feComposite in2="blur" operator="in"/>
      <feMerge>
        <feMergeNode/>
        <feMergeNode in="SourceGraphic"/>
      </feMerge>
    </filter>
  </defs>
  <path d="M4 3.5 24.7 12c1.2.5 1.2 2.2-.1 2.6l-8.1 2.5-3.4 8.1c-.5 1.2-2.2 1.1-2.6-.1L2.1 5.4C1.6 4.2 2.8 3 4 3.5Z" fill="#05090c" stroke="#55d8ff" stroke-width="3.8" stroke-linejoin="round" opacity=".7" filter="url(#glow)"/>
  <path d="M4 3.5 24.7 12c1.2.5 1.2 2.2-.1 2.6l-8.1 2.5-3.4 8.1c-.5 1.2-2.2 1.1-2.6-.1L2.1 5.4C1.6 4.2 2.8 3 4 3.5Z" fill="#05090c" stroke="#f4fbff" stroke-width="1.8" stroke-linejoin="round"/>
</svg>
